<svg width="86" height="142" viewBox="0 0 86 142" fill="none" xmlns="http://www.w3.org/2000/svg">
<path d="M10.0286 2.07493C10.399 1.49237 10.227 0.71982 9.64446 0.349389C9.06191 -0.0210429 8.28936 0.150918 7.91893 0.733474L10.0286 2.07493ZM84.7719 135.393C85.3685 135.046 85.5707 134.28 85.2235 133.684L79.5646 123.961C79.2173 123.364 78.4521 123.162 77.8554 123.509C77.2588 123.856 77.0566 124.622 77.4039 125.218L82.434 133.861L73.7912 138.891C73.1946 139.238 72.9924 140.004 73.3396 140.6C73.6869 141.197 74.4521 141.399 75.0488 141.052L84.7719 135.393ZM7.91893 0.733474C3.72028 7.33644 -0.607726 17.7753 0.324921 27.5391C0.794997 32.4602 2.60584 37.2298 6.45404 41.2022C10.2931 45.1651 16.0704 48.2428 24.3166 49.9563L24.8252 47.5086C16.9277 45.8676 11.6517 42.9746 8.24965 39.4627C4.85674 35.9603 3.23863 31.751 2.81359 27.3013C1.95601 18.3234 5.97315 8.45262 10.0286 2.07493L7.91893 0.733474ZM24.3166 49.9563C34.4177 52.0552 42.5116 53.7374 48.8823 55.3843C55.2736 57.0365 59.803 58.6232 62.8377 60.4847C65.8123 62.3094 67.256 64.3347 67.6682 66.9146C68.0988 69.6095 67.4394 73.0977 65.6974 77.8912L68.0471 78.7451C69.8185 73.8707 70.673 69.875 70.1369 66.5202C69.5825 63.0505 67.5791 60.4602 64.1449 58.3537C60.7708 56.284 55.9299 54.624 49.508 52.9639C43.0657 51.2985 34.9037 49.6028 24.8252 47.5086L24.3166 49.9563ZM65.6974 77.8912C62.1662 87.6083 59.0236 99.8994 60.579 110.821C61.3604 116.309 63.3335 121.491 67.0729 125.814C70.815 130.14 76.2537 133.521 83.8238 135.521L84.4624 133.104C77.291 131.209 72.3217 128.06 68.9636 124.178C65.6027 120.293 63.7833 115.589 63.054 110.469C61.5881 100.175 64.5516 88.3639 68.0471 78.7451L65.6974 77.8912Z" fill="#0CC0DF"/>
</svg>
